# Blender v2.78 (sub 0) OBJ File: 'TexturedCube.blend'
# www.blender.org
mtllib TexturedCube.mtl
o Cube
v 1.000000 -1.000000 -1.000000
v 1.000000 -1.000000 1.000000
v -1.000000 -1.000000 1.000000
v -1.000000 -1.000000 -1.000000
v 1.000000 1.000000 -0.999999
v 0.999999 1.000000 1.000001
v -1.000000 1.000000 1.000000
v -1.000000 1.000000 -1.000000
vt 0.0000 -1.0000
vt -1.0000 0.0000
vt 0.0000 0.0000
vt -1.0000 1.0000
vt -0.0000 -0.0000
vt 0.0000 1.0000
vt -1.0000 0.0000
vt 0.0000 0.0000
vt 1.0000 1.0000
vt 1.0000 0.0000
vt 0.0000 -1.0000
vt -1.0000 0.0000
vt 0.0000 0.0000
vt -1.0000 -1.0000
vt -1.0000 0.0000
vt -1.0000 1.0000
vt 0.0000 1.0000
vt -1.0000 -1.0000
vt -0.0000 1.0000
vt -1.0000 0.0000
vt 0.0000 0.0000
vt -1.0000 1.0000
vn 0.0000 -1.0000 0.0000
vn 0.0000 1.0000 0.0000
vn 1.0000 -0.0000 0.0000
vn -1.0000 -0.0000 -0.0000
vn 0.0000 0.0000 -1.0000
vn 0.0000 -0.0000 1.0000
usemtl Material
s off
f 2/1/1 4/2/1 1/3/1
f 8/4/2 6/5/2 5/6/2
f 5/6/3 2/7/3 1/3/3
f 3/8/4 8/9/4 4/10/4
f 1/11/5 8/12/5 5/13/5
f 2/1/1 3/14/1 4/2/1
f 8/4/2 7/15/2 6/5/2
f 5/6/3 6/16/3 2/7/3
f 3/8/4 7/17/4 8/9/4
f 1/11/5 4/18/5 8/12/5
usemtl Material.001
f 6/19/6 3/20/6 2/21/6
f 6/19/6 7/22/6 3/20/6
